<?xml version="1.0" encoding="utf-8"?>
<!-- Generator: Adobe Illustrator 19.2.1, SVG Export Plug-In . SVG Version: 6.00 Build 0)  -->
<svg version="1.1" id="Layer_1" xmlns="http://www.w3.org/2000/svg" xmlns:xlink="http://www.w3.org/1999/xlink" x="0px" y="0px"
	 viewBox="0 0 350.8 134.8" style="enable-background:new 0 0 350.8 134.8;" xml:space="preserve">
<style type="text/css">
	.st0{fill:#FF1D25;}
	.st1{fill:#FFCC66;}
	.st2{fill:#FFCC33;}
	.st3{fill:#F4B373;}
	.st4{fill:#848484;}
	.st5{fill:#9B9A8F;}
	.st6{fill:#FFFFCC;}
</style>
<g>
	<path class="st0" d="M62.6,134.8H12c-6.6,0-12-5.4-12-12V12.4c0-6.6,5.4-12,12-12h50.6c6.6,0,12,5.4,12,12v110.4
		C74.6,129.4,69.2,134.8,62.6,134.8z"/>
	<rect x="52.3" class="st1" width="230.6" height="134.8"/>
	<rect x="57.8" y="67.4" class="st2" width="225.1" height="67.4"/>
	<polygon class="st3" points="350.8,67.9 332.9,85.4 282.6,134.8 282.6,0 332.9,50.2 	"/>
	<polygon class="st4" points="350.4,67.9 332.6,85.4 332.6,50.2 	"/>
	<rect x="34" class="st5" width="23.8" height="134.8"/>
	<g>
		<path class="st6" d="M79.8,101.1V80.2h5.6c2,0,3.4,0.2,4.3,0.6c0.9,0.4,1.5,1,2,1.8c0.5,0.8,0.7,1.8,0.7,3.1
			c0,1.4-0.3,2.7-0.9,3.7s-1.6,1.9-2.9,2.5c-1.3,0.6-2.8,0.9-4.4,0.9h-1.3v8.3H79.8z M82.7,90.5h1.2c1.9,0,3.2-0.4,4.1-1.3
			c0.8-0.9,1.2-2,1.2-3.3c0-0.7-0.1-1.3-0.4-1.8c-0.3-0.5-0.7-0.9-1.3-1.2c-0.6-0.3-1.6-0.5-3.1-0.5h-1.7V90.5z"/>
		<path class="st6" d="M95.7,101.1V80.2h11.7v2.2h-8.7v6.7h7.3v2.2h-7.3v7.6h9.3v2.2H95.7z"/>
		<path class="st6" d="M111.4,101.1V80.2h2.9l10.5,16.1V80.2h2.6v20.9h-2.9L113.9,85v16.1H111.4z"/>
		<path class="st6" d="M148.4,100c-0.9,0.4-1.6,0.8-2.3,1c-0.7,0.2-1.4,0.4-2.1,0.5c-0.7,0.1-1.5,0.1-2.4,0.1c-3.5,0-6.1-1-7.7-3.1
			c-1.6-2.1-2.4-4.7-2.4-7.8c0-3.2,0.8-5.8,2.5-7.9c1.7-2.1,4.3-3.1,7.8-3.1c1.9,0,4,0.3,6.6,0.9v2.8c-2.1-0.7-3.6-1.2-4.3-1.3
			c-0.8-0.1-1.5-0.2-2.3-0.2c-2.5,0-4.3,0.8-5.4,2.5c-1.1,1.7-1.7,3.8-1.7,6.2c0,2.6,0.6,4.6,1.9,6.2c1.3,1.6,3.1,2.4,5.5,2.4
			c0.7,0,1.3-0.1,2-0.2c0.7-0.1,1.3-0.3,2-0.5s1.5-0.6,2.4-1.1V100z"/>
		<path class="st6" d="M152.6,101.1V80.2h3v20.9H152.6z"/>
		<path class="st6" d="M161,101.1V80.2h3v18.6h9.3v2.2H161z"/>
		<path class="st6" d="M197.8,101.1l-1-1.2c-1.5,1.2-3.4,1.8-5.4,1.8c-1.4,0-2.7-0.3-3.8-0.8c-1.2-0.6-2.1-1.4-2.7-2.4
			c-0.7-1.1-1-2.2-1-3.5c0-1.3,0.4-2.6,1.1-3.8c0.8-1.2,2.1-2.1,4-2.8c-0.9-1.7-1.4-3.1-1.4-4.2c0-0.8,0.2-1.5,0.7-2.2
			c0.4-0.7,1.1-1.2,1.8-1.6c0.8-0.4,1.6-0.6,2.6-0.6c1.4,0,2.5,0.4,3.4,1.2c0.9,0.8,1.3,1.8,1.3,3c0,2.1-1.5,3.9-4.6,5.4
			c1.4,2.5,3.1,4.8,4.9,7c0.4-0.5,0.6-1,0.8-1.4c0.2-0.4,0.3-1,0.4-1.7c0.1-0.7,0.2-1.4,0.2-2.2l0-1h2.8c0,3.1-0.9,5.7-2.8,8
			c0.9,1.1,1.8,2.1,2.9,3.1H197.8z M195.6,98.2c-1.3-1.6-2.4-3-3.1-4.1c-0.8-1.1-1.6-2.5-2.6-4.1c-1.3,0.5-2.1,1.1-2.6,1.9
			c-0.5,0.7-0.7,1.5-0.7,2.3c0,0.9,0.2,1.8,0.7,2.7c0.5,0.9,1.1,1.5,1.9,2c0.8,0.5,1.6,0.7,2.6,0.7
			C193.1,99.5,194.4,99.1,195.6,98.2z M191.6,87.6c2-0.9,3-2.1,3-3.6c0-0.6-0.2-1.1-0.6-1.6c-0.4-0.4-0.9-0.6-1.6-0.6
			c-0.8,0-1.3,0.2-1.6,0.7c-0.3,0.5-0.5,1-0.5,1.5C190.3,84.9,190.8,86.1,191.6,87.6z"/>
		<path class="st6" d="M230.4,100c-0.9,0.4-1.6,0.8-2.3,1c-0.7,0.2-1.4,0.4-2.1,0.5c-0.7,0.1-1.5,0.1-2.4,0.1c-3.5,0-6.1-1-7.7-3.1
			s-2.4-4.7-2.4-7.8c0-3.2,0.8-5.8,2.5-7.9c1.7-2.1,4.3-3.1,7.8-3.1c1.9,0,4,0.3,6.6,0.9v2.8c-2.1-0.7-3.6-1.2-4.3-1.3
			c-0.8-0.1-1.5-0.2-2.3-0.2c-2.5,0-4.3,0.8-5.4,2.5c-1.1,1.7-1.7,3.8-1.7,6.2c0,2.6,0.6,4.6,1.9,6.2c1.3,1.6,3.1,2.4,5.5,2.4
			c0.7,0,1.3-0.1,2-0.2c0.7-0.1,1.3-0.3,2-0.5c0.6-0.2,1.5-0.6,2.4-1.1V100z"/>
		<path class="st6" d="M243.3,101.6c-2,0-3.7-0.4-5.2-1.3c-1.5-0.9-2.6-2.2-3.4-3.9c-0.8-1.7-1.2-3.6-1.2-5.8c0-2.1,0.4-3.9,1.1-5.6
			c0.8-1.7,1.9-3,3.4-3.9c1.5-0.9,3.2-1.4,5.2-1.4c2,0,3.7,0.5,5.2,1.4c1.5,0.9,2.6,2.2,3.4,3.9c0.8,1.7,1.1,3.6,1.1,5.6
			c0,2.1-0.4,3.9-1.1,5.6c-0.8,1.7-1.9,3-3.4,3.9C247,101.1,245.3,101.6,243.3,101.6z M243.3,99.4c2.1,0,3.7-0.8,4.9-2.4
			c1.2-1.6,1.7-3.7,1.7-6.4c0-2.7-0.6-4.8-1.7-6.4c-1.2-1.6-2.8-2.3-4.9-2.3s-3.7,0.8-4.9,2.3c-1.2,1.6-1.7,3.7-1.7,6.4
			c0,2.7,0.6,4.8,1.7,6.4C239.5,98.6,241.2,99.4,243.3,99.4z"/>
		<path class="st6" d="M257.3,101.1v-3.5h3.5v3.5H257.3z"/>
	</g>
</g>
</svg>
